#N canvas 449 150 899 718 12;
#X declare -path ./bop;
#X declare -path ./bop.p;
#X obj 25 38 declare -path ./bop;
#X text 25 8 hi there! you are great! :);
#X obj 25 57 declare -path ./bop.p;
#X msg 67 333 2;
#X msg 52 304 1;
#X msg 34 273 0;
#X text 87 301 random;
#X text 100 329 cycle;
#X obj 34 616 channel 0;
#X obj 65 658 print channel0;
#X floatatom 519 133 13 0 0 0 - - - 0;
#X text 514 107 hipass (Hz);
#X obj 33 426 s cmd;
#X obj 516 185 s cmd;
#X obj 294 180 s cmd, f 6;
#X floatatom 294 115 5 0 0 0 - - - 0;
#X text 337 113 FOLDER;
#X floatatom 706 127 5 0 1 0 - - - 0;
#X text 709 102 gain;
#X obj 706 192 s cmd;
#X obj 276 374 s cmd;
#X obj 36 539 r cmd;
#X obj 701 292 tgl 19 0 empty empty empty 0 -10 0 12 #fcfcfc #000000 #000000 0 1;
#X obj 504 341 s cmd;
#X obj 707 395 s cmd;
#X obj 34 194 s cmd;
#X msg 25 122 0 64 127;
#X floatatom 275 307 13 0 0 0 - - - 0;
#X text 734 290 click;
#X text 102 121 midi to channel 0;
#X text 147 150 midi to all;
#X msg 45 152 global 65 127;
#X msg 274 338 global ramble follow \$1;
#X msg 701 325 0 ramble \$1;
#X msg 294 147 global ramble folder \$1;
#X msg 32 387 global ramble mode \$1;
#X msg 706 156 global ramble gain \$1;
#X obj 22 692 dac~, f 25;
#X text 70 273 MIDI;
#X text 26 244 sample index;
#X text 263 278 follow time (off < 50);
#X msg 729 357 0 ramble dump;
#X floatatom 31 362 5 0 0 0 - - - 0;
#X obj 180 540 r cmd;
#X obj 178 617 channel 1;
#X obj 239 656 print channel1;
#X msg 517 158 global hp \$1;
#X msg 616 132 2500;
#X msg 653 132 200;
#X msg 504 307 global ramble stop;
#X connect 3 0 42 0;
#X connect 4 0 42 0;
#X connect 5 0 42 0;
#X connect 8 0 37 0;
#X connect 8 1 9 0;
#X connect 10 0 46 0;
#X connect 15 0 34 0;
#X connect 17 0 36 0;
#X connect 21 0 8 0;
#X connect 22 0 33 0;
#X connect 26 0 25 0;
#X connect 27 0 32 0;
#X connect 31 0 25 0;
#X connect 32 0 20 0;
#X connect 33 0 24 0;
#X connect 34 0 14 0;
#X connect 35 0 12 0;
#X connect 36 0 19 0;
#X connect 41 0 24 0;
#X connect 42 0 35 0;
#X connect 43 0 44 0;
#X connect 44 0 37 1;
#X connect 44 1 45 0;
#X connect 46 0 13 0;
#X connect 47 0 10 0;
#X connect 48 0 10 0;
#X connect 49 0 23 0;
