#N canvas 1018 59 396 423 12;
#X declare -path ./bop/bop.p;
#X obj 21 338 dac~, f 26;
#X obj 22 179 r cmd;
#X obj 21 255 channel 0;
#X obj 21 205 route all 0;
#X obj 201 256 channel 1;
#X obj 202 177 r cmd;
#X obj 201 203 route all 1;
#X obj 81 292 print report0;
#X obj 261 293 print report1;
#X msg 22 109 \; pd dsp 1;
#X obj 22 80 loadbang;
#X text 35 279 left;
#X text 216 278 right;
#X obj 21 51 namecanvas bs-casula;
#X obj 21 22 declare -path ./bop/bop.p;
#N canvas 102 49 1326 549 osc-and-control 0;
#X msg 726 188 0.321429;
#X obj 585 148 s bs-casula;
#X msg 585 117 menusave;
#X obj 299 43 netreceive -u -b 5550;
#X obj 299 72 oscparse;
#X obj 299 101 list trim;
#X obj 726 58 r osc-in;
#X obj 299 130 s osc-in;
#X obj 726 94 route density;
#X msg 726 131 set \$1 \, bang;
#X obj 585 60 r osc-in;
#X obj 585 87 route save;
#X text 725 29 DENSITY;
#X text 592 35 SAVE;
#X msg 916 188 1;
#X obj 916 58 r osc-in;
#X msg 916 131 set \$1 \, bang;
#X obj 916 94 route gain;
#X text 915 29 GAIN;
#X msg 1081 189 0.0785714;
#X obj 1081 59 r osc-in;
#X msg 1081 132 set \$1 \, bang;
#X text 1080 30 FILTER;
#X obj 1081 95 route filter;
#X msg 916 247 all ramble gain \$1;
#X msg 1081 276 all hp \$1;
#X obj 1081 247 bop.p.scale 0 1 20 15000;
#X obj 1081 305 s cmd;
#X obj 916 276 s cmd;
#X obj 726 299 s cmd;
#X msg 726 270 all ramble follow \$1;
#X obj 726 241 bop.p.scale 0 1 30000 10;
#X obj 726 214 clip 0 1;
#X obj 916 217 clip 0 1;
#X obj 1081 218 clip 0 1;
#X obj 737 162 loadbang;
#X obj 926 160 loadbang;
#X obj 1091 161 loadbang;
#X obj 31 268 loadbang;
#X obj 31 407 s cmd;
#X obj 31 297 delay 500;
#X obj 279 316 metro 1000;
#X obj 279 267 loadbang;
#X msg 279 291 1;
#X obj 279 341 bop.p.counter;
#X obj 279 371 % 240;
#X text 322 371 every four minutes;
#X obj 279 395 sel 0;
#X obj 279 420 bop.p.counter;
#X msg 279 448 all ramble folder \$1;
#X obj 279 477 s cmd;
#X text 276 244 INCREMENT FOLDER;
#X msg 31 336 all ramble mode 1 \, all ramble folder 0 \, all 60 127, f 21;
#X text 28 245 BEGIN;
#X obj 39 40 inlet;
#X obj 41 70 sel 0 1;
#X msg 41 129 all ramble stop;
#X msg 64 100 all 64 127;
#X obj 41 168 s cmd;
#X connect 0 0 32 0;
#X connect 2 0 1 0;
#X connect 3 0 4 0;
#X connect 4 0 5 0;
#X connect 5 0 7 0;
#X connect 6 0 8 0;
#X connect 8 0 9 0;
#X connect 9 0 0 0;
#X connect 10 0 11 0;
#X connect 11 0 2 0;
#X connect 14 0 33 0;
#X connect 15 0 17 0;
#X connect 16 0 14 0;
#X connect 17 0 16 0;
#X connect 19 0 34 0;
#X connect 20 0 23 0;
#X connect 21 0 19 0;
#X connect 23 0 21 0;
#X connect 24 0 28 0;
#X connect 25 0 27 0;
#X connect 26 0 25 0;
#X connect 30 0 29 0;
#X connect 31 0 30 0;
#X connect 32 0 31 0;
#X connect 33 0 24 0;
#X connect 34 0 26 0;
#X connect 35 0 0 0;
#X connect 36 0 14 0;
#X connect 37 0 19 0;
#X connect 38 0 40 0;
#X connect 40 0 52 0;
#X connect 41 0 44 0;
#X connect 42 0 43 0;
#X connect 43 0 41 0;
#X connect 44 0 45 0;
#X connect 45 0 47 0;
#X connect 47 0 48 0;
#X connect 48 0 49 0;
#X connect 49 0 50 0;
#X connect 52 0 39 0;
#X connect 54 0 55 0;
#X connect 55 0 56 0;
#X connect 55 1 57 0;
#X connect 56 0 58 0;
#X connect 57 0 58 0;
#X restore 203 115 pd osc-and-control;
#X obj 203 84 tgl 19 0 empty empty start/stop 24 10 0 12 #fcfcfc #000000 #000000 0 1;
#X connect 1 0 3 0;
#X connect 2 0 0 0;
#X connect 2 1 7 0;
#X connect 3 0 2 0;
#X connect 3 1 2 0;
#X connect 4 0 0 1;
#X connect 4 1 8 0;
#X connect 5 0 6 0;
#X connect 6 0 4 0;
#X connect 6 1 4 0;
#X connect 10 0 9 0;
#X connect 16 0 15 0;
