#N canvas 457 307 641 436 12;
#X obj 37 243 dac~, f 26;
#X obj 41 34 r cmd;
#X obj 37 160 channel 0;
#X obj 40 60 route all 0;
#X obj 134 31 loadbang;
#X obj 134 90 bng 19 250 50 0 empty empty empty 0 -10 0 12 #fcfcfc #000000 #000000;
#X obj 134 60 delay 1000;
#X obj 217 161 channel 1;
#X obj 224 32 r cmd;
#X obj 223 58 route all 1;
#X obj 97 197 print report0;
#X obj 277 198 print report1;
#X msg 38 309 \; pd dsp 1;
#X obj 38 283 loadbang;
#X text 51 184 left;
#X text 232 183 right;
#X obj 272 382 s cmd;
#X msg 272 358 all ramble stop;
#X msg 407 359 all ramble follow \$1;
#X obj 407 382 s cmd;
#X connect 1 0 3 0;
#X connect 2 0 0 0;
#X connect 2 1 10 0;
#X connect 3 0 2 0;
#X connect 3 1 2 0;
#X connect 4 0 6 0;
#X connect 5 0 2 0;
#X connect 5 0 7 0;
#X connect 6 0 5 0;
#X connect 7 0 0 1;
#X connect 7 1 11 0;
#X connect 8 0 9 0;
#X connect 9 0 7 0;
#X connect 9 1 7 0;
#X connect 13 0 12 0;
#X connect 17 0 16 0;
#X connect 18 0 19 0;
