#N canvas 824 191 396 423 12;
#X declare -path ./bop/bop.p;
#X obj 21 338 dac~, f 26;
#X obj 22 179 r cmd;
#X obj 21 255 channel 0;
#X obj 21 205 route all 0;
#X obj 201 256 channel 1;
#X obj 202 177 r cmd;
#X obj 201 203 route all 1;
#X obj 81 292 print report0;
#X obj 261 293 print report1;
#X msg 22 109 \; pd dsp 1;
#X obj 22 80 loadbang;
#X text 35 279 left;
#X text 216 278 right;
#X obj 21 51 namecanvas bs-casula;
#X obj 21 22 declare -path ./bop/bop.p;
#X obj 203 84 tgl 19 1 empty empty start/stop 24 10 0 12 #fcfcfc #000000 #000000 1 1;
#X obj 203 115 input-and-sequencing;
#X connect 1 0 3 0;
#X connect 2 0 0 0;
#X connect 2 1 7 0;
#X connect 3 0 2 0;
#X connect 3 1 2 0;
#X connect 4 0 0 1;
#X connect 4 1 8 0;
#X connect 5 0 6 0;
#X connect 6 0 4 0;
#X connect 6 1 4 0;
#X connect 10 0 9 0;
#X connect 15 0 16 0;
