#N canvas 584 71 412 423 12;
#X declare -path ./bop/bop.p;
#X obj 20 343 dac~, f 30;
#X msg 22 109 \; pd dsp 1;
#X obj 22 80 loadbang;
#X obj 21 51 namecanvas bs-casula;
#X obj 21 22 declare -path ./bop/bop.p;
#X obj 247 23 tgl 19 1 empty empty start/stop 24 10 0 12 #fcfcfc #000000 #000000 1 1;
#X obj 247 54 input-and-sequencing;
#X obj 22 192 r cmd;
#X obj 159 263 print report;
#X obj 22 228 clone -do channel 12;
#N canvas 63 100 804 300 mixdown 0;
#X obj 284 214 outlet~;
#X obj 385 216 outlet~;
#X obj 279 133 snake~ out 12, f 29;
#X obj 282 97 inlet~;
#X connect 2 0 0 0;
#X connect 2 1 0 0;
#X connect 2 2 0 0;
#X connect 2 3 0 0;
#X connect 2 4 0 0;
#X connect 2 5 0 0;
#X connect 2 6 1 0;
#X connect 2 7 1 0;
#X connect 2 8 1 0;
#X connect 2 9 1 0;
#X connect 2 10 1 0;
#X connect 2 11 1 0;
#X connect 3 0 2 0;
#X restore 20 300 pd mixdown;
#X f 30;
#X connect 2 0 1 0;
#X connect 5 0 6 0;
#X connect 7 0 9 0;
#X connect 9 0 10 0;
#X connect 9 1 8 0;
#X connect 10 0 0 0;
#X connect 10 1 0 1;
