#N canvas 723 133 398 533 12;
#X declare -path ./bop/bop.p;
#X obj 21 418 dac~, f 26;
#X obj 22 259 r cmd;
#X obj 21 335 channel 0;
#X obj 21 285 route all 0;
#X obj 201 336 channel 1;
#X obj 202 257 r cmd;
#X obj 201 283 route all 1;
#X obj 81 372 print report0;
#X obj 261 373 print report1;
#X msg 21 78 \; pd dsp 1;
#X obj 21 49 loadbang;
#X text 35 359 left;
#X text 216 358 right;
#X obj 21 22 declare -path ./bop/bop.p;
#X obj 21 159 tgl 19 0 empty empty start/stop 24 10 0 12 #fcfcfc #000000 #000000 0 1;
#X obj 21 190 input-and-sequencing;
#N canvas 63 100 450 300 variables 0;
#X obj 263 69 print STARTTIME;
#X obj 263 45 r STARTTIME;
#X obj 48 46 r RANDOM;
#X obj 48 70 print RANDOM;
#X obj 141 46 r MACADDRESS;
#X obj 141 70 print MACADDRESS;
#X connect 1 0 0 0;
#X connect 2 0 3 0;
#X connect 4 0 5 0;
#X restore 211 22 pd variables;
#X connect 1 0 3 0;
#X connect 2 0 0 0;
#X connect 2 1 7 0;
#X connect 3 0 2 0;
#X connect 3 1 2 0;
#X connect 4 0 0 1;
#X connect 4 1 8 0;
#X connect 5 0 6 0;
#X connect 6 0 4 0;
#X connect 6 1 4 0;
#X connect 10 0 9 0;
#X connect 14 0 15 0;
