#N canvas 401 257 865 436 12;
#X obj 37 243 dac~, f 26;
#X obj 41 34 r cmd;
#X obj 37 160 channel 0;
#X obj 40 60 route all 0;
#X obj 426 235 loadbang;
#X obj 426 294 bng 19 250 50 0 empty empty empty 0 -10 0 12 #fcfcfc #000000 #000000;
#X obj 217 161 channel 1;
#X obj 224 32 r cmd;
#X obj 223 58 route all 1;
#X obj 97 197 print report0;
#X obj 277 198 print report1;
#X msg 38 369 \; pd dsp 1;
#X obj 38 343 loadbang;
#X text 51 184 left;
#X text 232 183 right;
#X obj 272 382 s cmd;
#X msg 272 358 all ramble stop;
#X obj 426 398 s cmd;
#X floatatom 470 89 5 0 0 0 - - - 0;
#X msg 470 124 set \$1;
#X msg 447 177 31;
#X text 484 174 loadbang to use as param;
#X obj 37 316 namecanvas bs-casula;
#X obj 676 123 s bs-casula;
#X msg 676 92 menusave;
#X text 749 86 <osc in here;
#X text 516 86 <osc in here;
#X msg 426 324 all ramble follow 15000 \, all ramble mode 1 \, all ramble folder 0 \, all ramble gain 1 \, all hp 10 \, all 60 127, f 34;
#X obj 426 264 delay 500;
#X connect 1 0 3 0;
#X connect 2 0 0 0;
#X connect 2 1 9 0;
#X connect 3 0 2 0;
#X connect 3 1 2 0;
#X connect 4 0 28 0;
#X connect 5 0 27 0;
#X connect 6 0 0 1;
#X connect 6 1 10 0;
#X connect 7 0 8 0;
#X connect 8 0 6 0;
#X connect 8 1 6 0;
#X connect 12 0 11 0;
#X connect 16 0 15 0;
#X connect 18 0 19 0;
#X connect 19 0 20 0;
#X connect 24 0 23 0;
#X connect 27 0 17 0;
#X connect 28 0 5 0;
