#N canvas 968 42 496 445 12;
#X declare -path ./bop/bop.p;
#X obj 20 343 dac~, f 30;
#X msg 22 109 \; pd dsp 1;
#X obj 22 80 loadbang;
#X obj 21 51 namecanvas bs-casula;
#X obj 21 22 declare -path ./bop/bop.p;
#X obj 247 23 tgl 19 1 empty empty start/stop 24 10 0 12 #fcfcfc #000000 #000000 1 1;
#X obj 247 54 input-and-sequencing;
#X obj 22 192 r cmd;
#X obj 159 263 print report;
#X obj 22 228 clone -do channel 12;
#N canvas 63 100 1044 596 mixdown 0;
#X obj 196 512 outlet~;
#X obj 809 516 outlet~;
#X obj 279 133 snake~ out 12, f 81;
#X obj 282 97 inlet~;
#X obj 779 174 *~ 0.9;
#X obj 723 174 *~ 0.1;
#X obj 685 254 *~ 0.8;
#X obj 635 254 *~ 0.2;
#X obj 586 319 *~ 0.7;
#X obj 533 318 *~ 0.3;
#X obj 493 376 *~ 0.6;
#X obj 440 375 *~ 0.4;
#X obj 393 428 *~ 0.5;
#X obj 350 475 *~ 0.5;
#X obj 249 323 *~ 0.9;
#X obj 307 321 *~ 0.1;
#X obj 330 274 *~ 0.8;
#X obj 382 274 *~ 0.2;
#X obj 403 196 *~ 0.7;
#X obj 453 195 *~ 0.3;
#X obj 174 766 *~ 0.6;
#X obj 121 765 *~ 0.4;
#X obj 494 169 *~ 0.6;
#X obj 546 167 *~ 0.4;
#X connect 2 0 0 0;
#X connect 2 1 14 0;
#X connect 2 1 15 0;
#X connect 2 2 16 0;
#X connect 2 2 17 0;
#X connect 2 3 19 0;
#X connect 2 3 18 0;
#X connect 2 4 23 0;
#X connect 2 4 22 0;
#X connect 2 5 13 0;
#X connect 2 6 12 0;
#X connect 2 7 10 0;
#X connect 2 7 11 0;
#X connect 2 8 8 0;
#X connect 2 8 9 0;
#X connect 2 9 6 0;
#X connect 2 9 7 0;
#X connect 2 10 4 0;
#X connect 2 10 5 0;
#X connect 2 11 1 0;
#X connect 3 0 2 0;
#X connect 4 0 1 0;
#X connect 5 0 0 0;
#X connect 6 0 1 0;
#X connect 7 0 0 0;
#X connect 8 0 1 0;
#X connect 9 0 0 0;
#X connect 10 0 1 0;
#X connect 11 0 0 0;
#X connect 12 0 1 0;
#X connect 12 0 0 0;
#X connect 13 0 1 0;
#X connect 13 0 0 0;
#X connect 14 0 0 0;
#X connect 15 0 1 0;
#X connect 16 0 0 0;
#X connect 17 0 1 0;
#X connect 18 0 0 0;
#X connect 19 0 1 0;
#X connect 22 0 0 0;
#X connect 23 0 1 0;
#X restore 20 300 pd mixdown;
#X f 30;
#X obj 381 24 bng 19 250 50 0 empty empty next-folder 22 10 0 12 #fcfcfc #000000 #000000;
#X connect 2 0 1 0;
#X connect 5 0 6 0;
#X connect 7 0 9 0;
#X connect 9 0 10 0;
#X connect 9 1 8 0;
#X connect 10 0 0 0;
#X connect 10 1 0 1;
#X connect 11 0 6 1;
