#N canvas 445 64 655 762 12;
#X declare -path ./bop;
#X declare -path ./bop.p;
#X obj 31 63 declare -path ./bop;
#X text 31 33 hi there! you are great! :);
#X obj 31 82 declare -path ./bop.p;
#X obj 40 140 inlet;
#X obj 556 753 outlet~;
#X obj 721 753 outlet;
#X obj 609 607 r \$0-in;
#X obj 608 644 route hp;
#X obj 555 701 hip~ 0, f 16;
#X obj 41 273 s \$0-midi;
#X obj 217 280 s \$0-in;
#X text 392 384 Ramble for Bedrock;
#X text 435 702 hi pass filter;
#X obj 38 177 route list bang, f 26;
#X text 225 243 < messages;
#X text 51 213 < Lists starting with numbers, f 12;
#X obj 551 441 bop.module/streamsample~;
#N canvas 63 100 450 300 load-rando-seed 0;
#X obj 16 105 realtime;
#X obj 22 149 + \$0;
#X obj 44 54 bng 19 250 50 0 empty empty empty 0 -10 0 12 #fcfcfc #000000 #000000;
#X obj 42 9 loadbang;
#X obj 21 217 outlet;
#X msg 22 180 seed \$1;
#X obj 20 127 pow 4;
#X connect 0 0 6 0;
#X connect 1 0 5 0;
#X connect 2 0 0 1;
#X connect 3 0 2 0;
#X connect 5 0 4 0;
#X connect 6 0 1 0;
#X restore 684 308 pd load-rando-seed;
#X obj 668 374 bop.p/bop.p.shuffle;
#X text 736 56 ---------- RETRIGGER ------------;
#X obj 798 344 r \$0-numsamples;
#X obj 738 572 s \$0-numsamples;
#X obj 810 543 s \$0-done;
#X obj 669 62 r \$0-in;
#X obj 38 302 r \$0-midi;
#X obj 669 102 route ramble;
#X obj 668 262 bng 19 250 50 0 empty empty empty 0 -10 0 12 #fcfcfc #000000 #000000;
#X obj 553 341 r \$0-in;
#X obj 553 381 route ramble;
#X msg 668 406 \$1 127;
#X obj 669 146 route start stop;
#X floatatom 737 403 5 0 0 0 - - - 0;
#X floatatom 839 381 5 0 0 0 - - - 0;
#X obj 738 500 route numsamples done;
#X obj 723 182 s \$0-stop;
#N canvas 92 129 744 748 follow 0;
#X obj 174 468 bng 19 250 50 0 empty empty empty 0 -10 0 12 #fcfcfc #000000 #000000;
#X floatatom 202 355 5 0 0 0 - - - 0;
#X text 199 471 retrigger;
#X floatatom 250 186 10 0 0 0 - - - 0;
#X msg 354 230 0;
#X msg 402 232 1;
#X obj 182 681 route 1;
#X obj 178 221 f;
#X obj 353 260 tgl 19 0 empty empty empty 0 -10 0 12 #fcfcfc #000000 #000000 0 1;
#X obj 175 312 random;
#X obj 175 274 t b f;
#X obj 355 118 moses 1;
#X obj 68 344 r \$0-stop;
#X msg 68 368 stop;
#N canvas 63 100 450 300 load-rando-seed 0;
#X obj 16 105 realtime;
#X obj 22 149 + \$0;
#X obj 44 54 bng 19 250 50 0 empty empty empty 0 -10 0 12 #fcfcfc #000000 #000000;
#X obj 42 9 loadbang;
#X obj 21 217 outlet;
#X msg 22 180 seed \$1;
#X obj 20 127 pow 4;
#X connect 0 0 6 0;
#X connect 1 0 5 0;
#X connect 2 0 0 1;
#X connect 3 0 2 0;
#X connect 5 0 4 0;
#X connect 6 0 1 0;
#X restore 38 224 pd load-rando-seed;
#X obj 356 21 r \$0-in;
#X obj 356 61 route ramble;
#X obj 356 85 route follow;
#X obj 172 143 r \$0-done;
#X obj 178 408 delay 100;
#X obj 173 187 bng 19 250 50 0 empty empty empty 0 -10 0 12 #fcfcfc #000000 #000000;
#X msg 175 535 1;
#X obj 184 597 pack f f, f 24;
#X msg 185 642 \$2 \$1;
#X text 379 262 enable/disable;
#X obj 182 718 outlet;
#X text 456 171 disable when follow == 0;
#X connect 0 0 21 0;
#X connect 3 0 7 1;
#X connect 4 0 8 0;
#X connect 5 0 8 0;
#X connect 6 0 25 0;
#X connect 7 0 10 0;
#X connect 8 0 22 1;
#X connect 9 0 1 0;
#X connect 9 0 19 0;
#X connect 10 0 9 0;
#X connect 10 1 9 1;
#X connect 11 0 4 0;
#X connect 11 1 3 0;
#X connect 11 1 5 0;
#X connect 12 0 13 0;
#X connect 13 0 19 0;
#X connect 14 0 9 0;
#X connect 15 0 16 0;
#X connect 16 0 17 0;
#X connect 17 0 11 0;
#X connect 18 0 20 0;
#X connect 19 0 0 0;
#X connect 20 0 7 0;
#X connect 21 0 22 0;
#X connect 22 0 23 0;
#X connect 23 0 6 0;
#X restore 680 225 pd follow;
#X obj 217 307 r \$0-in;
#X obj 493 200 f \$0;
#X floatatom 493 224 5 0 0 0 - - - 0;
#X obj 497 149 bng 19 250 50 0 empty empty empty 0 -10 0 12 #fcfcfc #000000 #000000;
#X obj 260 462 r myVar1;
#X obj 260 486 print MYVAR;
#X connect 3 0 13 0;
#X connect 6 0 7 0;
#X connect 7 0 8 1;
#X connect 8 0 4 0;
#X connect 13 0 9 0;
#X connect 13 2 10 0;
#X connect 16 0 8 0;
#X connect 16 1 5 0;
#X connect 16 1 33 0;
#X connect 17 0 18 0;
#X connect 18 0 29 0;
#X connect 18 0 31 0;
#X connect 20 0 18 1;
#X connect 20 0 32 0;
#X connect 23 0 25 0;
#X connect 25 0 30 0;
#X connect 26 0 18 0;
#X connect 27 0 28 0;
#X connect 28 0 16 0;
#X connect 29 0 16 0;
#X connect 30 0 26 0;
#X connect 30 1 34 0;
#X connect 33 0 21 0;
#X connect 33 1 22 0;
#X connect 35 0 26 0;
#X connect 37 0 38 0;
#X connect 39 0 37 0;
#X connect 40 0 41 0;
