#N canvas 488 161 825 626 12;
#X declare -path ./bop;
#X declare -path ./bop.p;
#X obj 31 63 declare -path ./bop;
#X text 31 33 hi there! you are great! :);
#X obj 31 82 declare -path ./bop.p;
#X obj 40 140 inlet;
#X obj 523 433 outlet~;
#X obj 708 435 outlet;
#X obj 547 118 r \$0-in;
#X obj 576 287 r \$0-in;
#X obj 575 324 route hp;
#X obj 522 381 hip~ 0, f 16;
#X obj 531 70 r \$0-midi;
#X obj 41 543 s \$0-midi;
#X obj 217 442 s \$0-in;
#X obj 525 217 bop.module/ramble, f 26;
#X obj 547 178 route ramble;
#X text 374 213 Ramble for Bedrock;
#X text 402 382 hi pass filter;
#X obj 109 224 bng 19 250 50 0 empty empty default 30 7 0 12 #fcfcfc #000000 #000000;
#X obj 38 177 route list bang, f 26;
#X text 225 405 < messages;
#X text 51 483 < Lists starting with numbers, f 12;
#X obj 102 272 t b b;
#X msg 93 407 \$1 127;
#X obj 93 383 f \$1;
#X msg 117 324 ramble follow 15000 \, ramble mode 1 \, ramble folder 0 \, ramble gain 1, f 27;
#X connect 3 0 18 0;
#X connect 6 0 14 0;
#X connect 7 0 8 0;
#X connect 8 0 9 1;
#X connect 9 0 4 0;
#X connect 10 0 13 0;
#X connect 13 0 9 0;
#X connect 13 1 5 0;
#X connect 14 0 13 0;
#X connect 17 0 21 0;
#X connect 18 0 11 0;
#X connect 18 1 17 0;
#X connect 18 2 12 0;
#X connect 21 0 23 0;
#X connect 21 1 24 0;
#X connect 22 0 18 0;
#X connect 23 0 22 0;
#X connect 24 0 18 0;
