#N canvas 9 148 825 665 12;
#X declare -path ./bop;
#X declare -path ./bop.p;
#X obj 31 63 declare -path ./bop;
#X text 31 33 hi there! you are great! :);
#X obj 31 82 declare -path ./bop.p;
#X obj 37 138 inlet;
#X obj 550 415 outlet~;
#X obj 735 417 outlet;
#X obj 574 100 r \$0-in;
#X obj 603 269 r \$0-in;
#X obj 602 306 route hp;
#X obj 549 363 hip~ 0, f 16;
#X obj 558 52 r \$0-midi;
#X obj 126 229 route \$1, f 11;
#X obj 38 313 s \$0-midi;
#X obj 38 177 route global list, f 26;
#X obj 38 269 route list, f 15;
#X obj 140 312 s \$0-in;
#X text 144 201 Lists starting with numbers;
#X text 212 229 get \$0;
#X text 32 337 Lists starting with numbers, f 12;
#X text 138 336 messages;
#X obj 37 37;
#X obj 552 199 bop.module/ramble, f 26;
#X obj 574 130 route ramble;
#X text 401 195 Ramble for Bedrock;
#X text 429 364 hi pass filter;
#X connect 3 0 13 0;
#X connect 6 0 22 0;
#X connect 7 0 8 0;
#X connect 8 0 9 1;
#X connect 9 0 4 0;
#X connect 10 0 21 0;
#X connect 11 0 14 0;
#X connect 13 0 14 0;
#X connect 13 1 11 0;
#X connect 14 0 12 0;
#X connect 14 1 15 0;
#X connect 21 0 9 0;
#X connect 21 1 5 0;
#X connect 22 0 21 0;
