#N canvas 55 64 1059 762 12;
#X declare -path ./bop;
#X declare -path ./bop.p;
#X obj 31 63 declare -path ./bop;
#X text 31 33 hi there! you are great! :);
#X obj 31 82 declare -path ./bop.p;
#X obj 40 140 inlet;
#X obj 556 753 outlet~;
#X obj 721 753 outlet;
#X obj 609 607 r \$0-in;
#X obj 608 644 route hp;
#X obj 555 701 hip~ 0, f 16;
#X obj 41 273 s \$0-midi;
#X obj 217 280 s \$0-in;
#X text 392 384 Ramble for Bedrock;
#X text 435 702 hi pass filter;
#X obj 38 177 route list bang, f 26;
#X text 225 243 < messages;
#X text 51 213 < Lists starting with numbers, f 12;
#X obj 551 441 bop.module/streamsample~;
#N canvas 412 221 450 300 load-rando-seed 0;
#X obj 21 217 outlet;
#X msg 22 180 seed \$1;
#X obj 22 125 r STARTTIME;
#X obj 22 149 + \$0;
#X connect 1 0 0 0;
#X connect 2 0 3 0;
#X connect 3 0 1 0;
#X restore 684 308 pd load-rando-seed;
#X obj 668 374 bop.p/bop.p.shuffle;
#X text 736 56 ---------- RETRIGGER ------------;
#X obj 798 344 r \$0-numsamples;
#X obj 738 572 s \$0-numsamples;
#X obj 810 543 s \$0-done;
#X obj 669 62 r \$0-in;
#X obj 38 302 r \$0-midi;
#X obj 668 262 bng 19 250 50 0 empty empty empty 0 -10 0 12 #fcfcfc #000000 #000000;
#X obj 553 341 r \$0-in;
#X msg 668 406 \$1 127;
#X floatatom 737 403 5 0 0 0 - - - 0;
#X floatatom 839 381 5 0 0 0 - - - 0;
#X obj 738 500 route numsamples done;
#X obj 690 196 s \$0-stop;
#N canvas 92 129 744 789 follow 0;
#X obj 174 548 bng 19 250 50 0 empty empty empty 0 -10 0 12 #fcfcfc #000000 #000000;
#X floatatom 202 435 9 0 0 0 - - - 0;
#X text 199 551 retrigger;
#X floatatom 250 186 10 0 0 0 - - - 0;
#X msg 354 230 0;
#X msg 402 232 1;
#X obj 182 761 route 1;
#X obj 193 221 f;
#X obj 353 260 tgl 19 0 empty empty empty 0 -10 0 12 #fcfcfc #000000 #000000 0 1;
#X obj 175 392 random;
#X obj 175 354 t b f;
#X obj 355 118 moses 1;
#X obj 68 424 r \$0-stop;
#X msg 68 448 stop;
#X obj 161 103 r \$0-done;
#X obj 178 488 delay 100;
#X obj 161 149 bng 19 250 50 0 empty empty empty 0 -10 0 12 #fcfcfc #000000 #000000;
#X msg 175 615 1;
#X obj 184 677 pack f f, f 24;
#X msg 185 722 \$2 \$1;
#X text 379 262 enable/disable;
#X obj 182 798 outlet;
#X text 456 171 disable when follow == 0;
#N canvas 412 221 450 300 load-rando-seed 0;
#X obj 21 217 outlet;
#X msg 22 180 seed \$1;
#X obj 22 125 r STARTTIME;
#X obj 22 149 + \$0;
#X connect 1 0 0 0;
#X connect 2 0 3 0;
#X connect 3 0 1 0;
#X restore 22 350 pd load-rando-seed;
#X obj 355 86 inlet;
#X obj 115 279 > 1;
#X obj 161 187 t b b;
#N canvas 412 221 450 300 load-rando-seed 0;
#X obj 21 217 outlet;
#X msg 22 180 seed \$1;
#X obj 22 125 r STARTTIME;
#X obj 22 149 + \$0;
#X connect 1 0 0 0;
#X connect 2 0 3 0;
#X connect 3 0 1 0;
#X restore 16 191 pd load-rando-seed;
#X obj 175 325 *;
#X floatatom 263 350 10 0 0 0 - - - 0;
#X obj 115 255 random 4;
#X connect 0 0 17 0;
#X connect 3 0 7 1;
#X connect 4 0 8 0;
#X connect 5 0 8 0;
#X connect 6 0 21 0;
#X connect 7 0 28 1;
#X connect 8 0 18 1;
#X connect 9 0 1 0;
#X connect 9 0 15 0;
#X connect 10 0 9 0;
#X connect 10 1 9 1;
#X connect 11 0 4 0;
#X connect 11 1 3 0;
#X connect 11 1 5 0;
#X connect 12 0 13 0;
#X connect 13 0 15 0;
#X connect 14 0 16 0;
#X connect 15 0 0 0;
#X connect 16 0 26 0;
#X connect 17 0 18 0;
#X connect 18 0 19 0;
#X connect 19 0 6 0;
#X connect 23 0 9 0;
#X connect 24 0 11 0;
#X connect 25 0 28 0;
#X connect 26 0 30 0;
#X connect 26 1 7 0;
#X connect 27 0 30 0;
#X connect 28 0 10 0;
#X connect 28 0 29 0;
#X connect 30 0 25 0;
#X restore 774 219 pd follow;
#X obj 217 307 r \$0-in;
#X obj 553 381 route bedrock;
#X obj 669 102 route bedrock;
#X obj 669 146 route start stop follow;
#X connect 3 0 13 0;
#X connect 6 0 7 0;
#X connect 7 0 8 1;
#X connect 8 0 4 0;
#X connect 13 0 9 0;
#X connect 13 2 10 0;
#X connect 16 0 8 0;
#X connect 16 1 5 0;
#X connect 16 1 30 0;
#X connect 17 0 18 0;
#X connect 18 0 27 0;
#X connect 18 0 28 0;
#X connect 20 0 18 1;
#X connect 20 0 29 0;
#X connect 23 0 35 0;
#X connect 25 0 18 0;
#X connect 26 0 34 0;
#X connect 27 0 16 0;
#X connect 30 0 21 0;
#X connect 30 1 22 0;
#X connect 32 0 25 0;
#X connect 34 0 16 0;
#X connect 35 0 36 0;
#X connect 36 0 25 0;
#X connect 36 1 31 0;
#X connect 36 2 32 0;
