#N canvas 491 261 723 440 12;
#X declare -path ./bop/bop.p;
#X obj 287 243 s osc;
#X obj 254 10 r osc;
#X obj 157 263 s osc;
#X obj 17 244 s osc;
#X obj 74 131 bng 19 250 50 0 \$0-save empty save 25 9 0 12 #fcfcfc #000000 #000000;
#X obj 406 242 s osc;
#X obj 254 121 netsend -u -b;
#X msg 300 64 connect 255.255.255.255 5550, f 24;
#X obj 299 39 loadbang;
#X obj 18 214 oscformat density;
#X obj 157 234 oscformat filter;
#X obj 289 214 oscformat gain;
#X obj 407 209 oscformat save;
#X obj 13 309 declare -path ./bop/bop.p;
#X obj 30 339 bop.p.param \$0 density;
#X obj 27 20 bop.p.param.gui \$0 density;
#X obj 27 50 bop.p.param.gui \$0 filter;
#X obj 27 80 bop.p.param.gui \$0 gain;
#X obj 30 369 bop.p.param \$0 filter;
#X obj 42 409 bop.p.param \$0 gain;
#X obj 17 184 r \$0-get-density;
#X obj 157 183 r \$0-get-filter;
#X obj 289 178 r \$0-get-gain;
#X obj 407 180 r \$0-save;
#X obj 157 208 pow 4;
#X connect 1 0 6 0;
#X connect 7 0 6 0;
#X connect 8 0 7 0;
#X connect 9 0 3 0;
#X connect 10 0 2 0;
#X connect 11 0 0 0;
#X connect 12 0 5 0;
#X connect 20 0 9 0;
#X connect 21 0 24 0;
#X connect 22 0 11 0;
#X connect 23 0 12 0;
#X connect 24 0 10 0;
#X coords 0 -1 1 1 180 165 2 10 10;
