#N canvas 99 398 723 440 12;
#X floatatom 20 86 8 0 1 1 gain - \$0-gain 0;
#X obj 287 243 s osc;
#X obj 254 10 r osc;
#X floatatom 20 58 8 0 1 1 filter - \$0-filter 0;
#X obj 157 243 s osc;
#X floatatom 20 30 8 0 1 1 density - \$0-density 0;
#X obj 17 244 s osc;
#X obj 20 124 bng 19 250 50 0 \$0-save empty save 25 9 0 12 #fcfcfc #000000 #000000;
#X obj 406 242 s osc;
#X obj 17 184 r \$0-density;
#X obj 157 183 r \$0-filter;
#X obj 289 178 r \$0-gain;
#X obj 407 180 r \$0-save;
#X obj 254 121 netsend -u -b;
#X msg 361 73 connect 255.255.255.255 5550, f 24;
#X obj 360 48 loadbang;
#X obj 18 214 oscformat density;
#X obj 157 214 oscformat filter;
#X obj 289 214 oscformat gain;
#X obj 407 209 oscformat save;
#X connect 2 0 13 0;
#X connect 9 0 16 0;
#X connect 10 0 17 0;
#X connect 11 0 18 0;
#X connect 12 0 19 0;
#X connect 14 0 13 0;
#X connect 15 0 14 0;
#X connect 16 0 6 0;
#X connect 17 0 4 0;
#X connect 18 0 1 0;
#X connect 19 0 8 0;
#X coords 0 -1 1 1 172 154 2 10 10;
