#N canvas 0 83 1470 790 12;
#X msg 630 184 0;
#X obj 295 38 netreceive -u -b 5550;
#X obj 295 67 oscparse;
#X obj 295 96 list trim;
#X obj 630 74 r osc-in;
#X obj 295 125 s osc-in;
#X obj 630 110 route density;
#X msg 630 147 set \$1 \, bang;
#X text 629 45 DENSITY;
#X msg 1080 184 0;
#X obj 1080 74 r osc-in;
#X msg 1080 147 set \$1 \, bang;
#X obj 1080 110 route gain;
#X text 1079 45 GAIN;
#X msg 855 185 0;
#X obj 855 75 r osc-in;
#X msg 855 148 set \$1 \, bang;
#X text 854 46 FILTER;
#X obj 855 111 route filter;
#X msg 1080 243 all ramble gain \$1;
#X msg 855 272 all hp \$1;
#X obj 855 243 bop.p.scale 0 1 20 15000;
#X obj 855 301 s cmd;
#X obj 1080 272 s cmd;
#X obj 630 325 s cmd;
#X msg 630 296 all ramble follow \$1;
#X obj 630 237 bop.p.scale 0 1 30000 10;
#X obj 630 210 clip 0 1;
#X obj 1080 213 clip 0 1;
#X obj 855 214 clip 0 1;
#X obj 31 538 loadbang;
#X obj 31 677 s cmd;
#X obj 31 567 delay 500;
#X obj 416 491 metro 1000;
#X obj 416 442 loadbang;
#X msg 416 466 1;
#X obj 416 516 bop.p.counter;
#X obj 416 570 sel 0;
#X obj 897 547 bop.p.counter;
#X text 413 419 INCREMENT FOLDER;
#X text 28 515 BEGIN;
#X obj 40 33 inlet;
#X obj 42 168 sel 0 1;
#X msg 42 247 all ramble stop;
#X obj 43 272 s cmd;
#X msg 30 434 all ramble gain 1 0 20000;
#X obj 31 466 s cmd;
#X text 27 411 fades work;
#X text 163 250 < HARD STOP;
#X text 158 316 < TRICKLE STOP;
#X obj 40 361 s cmd;
#X obj 636 448 t b b b, f 36;
#X text 736 401 make a lightweight bop.seq!;
#X msg 31 606 all ramble mode 1 \, all ramble folder 0 \, all 60 127, f 21;
#X obj 416 596 bng 19 250 50 0 empty empty empty 0 -10 0 12 #fcfcfc #000000 #000000;
#X msg 65 208 all ramble stop \, all 64 127;
#X text 261 197 < STOP/START;
#X obj 40 60 s \$0-go;
#X obj 41 90 r \$0-go;
#X obj 356 442 r \$0-go;
#X obj 637 477 bng 19 250 50 0 empty empty empty 0 -10 0 12 #fcfcfc #000000 #000000;
#X obj 637 543 bng 19 250 50 0 empty empty empty 0 -10 0 12 #fcfcfc #000000 #000000;
#X floatatom 355 546 5 0 0 0 - - - 0;
#X msg 897 575 all ramble follow 0 \, all ramble folder \$1, f 27;
#X obj 649 267 s \$0-follow;
#X obj 655 573 r \$0-follow;
#X obj 637 605 f;
#X obj 897 620 s cmd;
#X obj 637 659 s cmd;
#X obj 637 505 delay 15000;
#X text 814 474 15 second trickle stop \, folder change \,;
#X obj 416 625 bop.p.counter;
#X obj 416 698 s cmd;
#X msg 416 653 all ramble folder \$1;
#X msg 41 310 all ramble follow 0, f 15;
#X text 663 543 reset follow and start;
#X msg 637 629 all ramble follow \$1 \, all 64 127;
#X obj 379 78 r osc-in;
#X obj 379 102 route cmd;
#X obj 379 126 s cmd;
#X text 378 58 forward messages;
#X obj 60 117 r osc-in;
#X obj 60 140 route go;
#X obj 416 546 % 180;
#X obj 147 49 inlet;
#X obj 138 97 s \$0-next;
#X obj 470 571 r \$0-next;
#X text 459 546 every three minutes;
#X obj 1351 418 text define params;
#X msg 1351 374 read params.txt;
#X obj 1543 223 r osc-in;
#X obj 1498 289 pack s f f f, f 20;
#X obj 1498 328 text set params;
#X msg 1498 188 symbol params;
#X obj 1305 322 loadbang;
#X obj 1305 346 t b b, f 7;
#X obj 1305 454 text get params;
#X msg 1305 384 0;
#X obj 1305 483 list trim;
#X obj 1305 507 route params;
#X obj 1305 531 unpack f f f, f 25;
#X msg 1466 374 write params.txt;
#X obj 1466 85 r osc-in;
#X obj 1466 112 route save;
#X text 1473 60 SAVE;
#X msg 1305 573 density \$1;
#X msg 1477 573 gain \$1;
#X msg 1391 573 filter \$1;
#X obj 1305 625 s osc-in;
#X obj 1466 145 t b b;
#X obj 1543 254 route density filter gain;
#X text 1310 25 PARAMETER SAVING AND LOADING;
#X text 586 20 OSC IN ==================================================================================, f 92;
#X connect 0 0 27 0;
#X connect 1 0 2 0;
#X connect 2 0 3 0;
#X connect 3 0 5 0;
#X connect 4 0 6 0;
#X connect 6 0 7 0;
#X connect 7 0 0 0;
#X connect 9 0 28 0;
#X connect 10 0 12 0;
#X connect 11 0 9 0;
#X connect 12 0 11 0;
#X connect 14 0 29 0;
#X connect 15 0 18 0;
#X connect 16 0 14 0;
#X connect 18 0 16 0;
#X connect 19 0 23 0;
#X connect 20 0 22 0;
#X connect 21 0 20 0;
#X connect 25 0 24 0;
#X connect 26 0 25 0;
#X connect 26 0 64 0;
#X connect 27 0 26 0;
#X connect 28 0 19 0;
#X connect 29 0 21 0;
#X connect 30 0 32 0;
#X connect 32 0 53 0;
#X connect 33 0 36 0;
#X connect 34 0 35 0;
#X connect 35 0 33 0;
#X connect 36 0 62 0;
#X connect 36 0 83 0;
#X connect 37 0 54 0;
#X connect 38 0 63 0;
#X connect 41 0 57 0;
#X connect 42 0 43 0;
#X connect 42 1 55 0;
#X connect 43 0 44 0;
#X connect 45 0 46 0;
#X connect 51 0 60 0;
#X connect 51 1 38 0;
#X connect 53 0 31 0;
#X connect 54 0 71 0;
#X connect 55 0 44 0;
#X connect 58 0 42 0;
#X connect 59 0 33 0;
#X connect 60 0 69 0;
#X connect 61 0 66 0;
#X connect 63 0 67 0;
#X connect 66 0 76 0;
#X connect 69 0 61 0;
#X connect 71 0 73 0;
#X connect 73 0 72 0;
#X connect 74 0 50 0;
#X connect 76 0 68 0;
#X connect 77 0 78 0;
#X connect 78 0 79 0;
#X connect 81 0 82 0;
#X connect 82 0 42 0;
#X connect 83 0 37 0;
#X connect 84 0 85 0;
#X connect 86 0 54 0;
#X connect 89 0 88 0;
#X connect 90 0 110 0;
#X connect 91 0 92 0;
#X connect 93 0 91 0;
#X connect 94 0 95 0;
#X connect 95 0 97 0;
#X connect 95 1 89 0;
#X connect 96 0 98 0;
#X connect 97 0 96 0;
#X connect 98 0 99 0;
#X connect 99 0 100 0;
#X connect 100 0 105 0;
#X connect 100 1 107 0;
#X connect 100 2 106 0;
#X connect 101 0 88 0;
#X connect 102 0 103 0;
#X connect 103 0 109 0;
#X connect 105 0 108 0;
#X connect 106 0 108 0;
#X connect 107 0 108 0;
#X connect 109 0 101 0;
#X connect 109 1 93 0;
#X connect 110 0 91 1;
#X connect 110 1 91 2;
#X connect 110 2 91 3;
