#N canvas 270 37 1140 891 12;
#X msg 800 204 0.835714;
#X obj 599 173 s bs-casula;
#X msg 599 142 menusave;
#X obj 295 38 netreceive -u -b 5550;
#X obj 295 67 oscparse;
#X obj 295 96 list trim;
#X obj 800 74 r osc-in;
#X obj 295 125 s osc-in;
#X obj 800 110 route density;
#X msg 800 147 set \$1 \, bang;
#X obj 599 85 r osc-in;
#X obj 599 112 route save;
#X text 799 45 DENSITY;
#X text 606 60 SAVE;
#X msg 1070 204 0.814286;
#X obj 1070 74 r osc-in;
#X msg 1070 147 set \$1 \, bang;
#X obj 1070 110 route gain;
#X text 1069 45 GAIN;
#X msg 1265 205 0.1296;
#X obj 1265 75 r osc-in;
#X msg 1265 148 set \$1 \, bang;
#X text 1264 46 FILTER;
#X obj 1265 111 route filter;
#X msg 1070 263 all ramble gain \$1;
#X msg 1265 292 all hp \$1;
#X obj 1265 263 bop.p.scale 0 1 20 15000;
#X obj 1265 321 s cmd;
#X obj 1070 292 s cmd;
#X obj 800 315 s cmd;
#X msg 800 286 all ramble follow \$1;
#X obj 800 257 bop.p.scale 0 1 30000 10;
#X obj 800 230 clip 0 1;
#X obj 1070 233 clip 0 1;
#X obj 1265 234 clip 0 1;
#X obj 811 178 loadbang;
#X obj 1080 176 loadbang;
#X obj 1275 177 loadbang;
#X obj 31 538 loadbang;
#X obj 31 677 s cmd;
#X obj 31 567 delay 500;
#X obj 416 491 metro 1000;
#X obj 416 442 loadbang;
#X msg 416 466 1;
#X obj 416 516 bop.p.counter;
#X obj 416 570 sel 0;
#X obj 897 547 bop.p.counter;
#X text 413 419 INCREMENT FOLDER;
#X text 28 515 BEGIN;
#X obj 40 33 inlet;
#X obj 42 168 sel 0 1;
#X msg 42 247 all ramble stop;
#X obj 43 272 s cmd;
#X msg 30 434 all ramble gain 1 0 20000;
#X obj 31 466 s cmd;
#X text 586 20 OSC IN ==============================================================================================================================, f 134;
#X text 27 411 fades work;
#X text 163 250 < HARD STOP;
#X text 158 316 < TRICKLE STOP;
#X obj 40 361 s cmd;
#X obj 636 448 t b b b, f 36;
#X text 736 401 make a lightweight bop.seq!;
#X msg 31 606 all ramble mode 1 \, all ramble folder 0 \, all 60 127, f 21;
#X obj 416 596 bng 19 250 50 0 empty empty empty 0 -10 0 12 #fcfcfc #000000 #000000;
#X msg 65 208 all ramble stop \, all 64 127;
#X text 261 197 < STOP/START;
#X obj 40 60 s \$0-go;
#X obj 41 90 r \$0-go;
#X obj 356 442 r \$0-go;
#X obj 637 477 bng 19 250 50 0 empty empty empty 0 -10 0 12 #fcfcfc #000000 #000000;
#X obj 637 543 bng 19 250 50 0 empty empty empty 0 -10 0 12 #fcfcfc #000000 #000000;
#X floatatom 355 546 5 0 0 0 - - - 0;
#X msg 897 575 all ramble follow 0 \, all ramble folder \$1, f 27;
#X obj 709 287 s \$0-follow;
#X obj 655 573 r \$0-follow;
#X obj 637 605 f;
#X obj 897 620 s cmd;
#X obj 637 659 s cmd;
#X obj 637 505 delay 15000;
#X text 814 474 15 second trickle stop \, folder change \,;
#X obj 416 625 bop.p.counter;
#X obj 416 698 s cmd;
#X msg 416 653 all ramble folder \$1;
#X msg 41 310 all ramble follow 0, f 15;
#X text 663 543 reset follow and start;
#X msg 637 629 all ramble follow \$1 \, all 64 127;
#X obj 379 78 r osc-in;
#X obj 379 102 route cmd;
#X obj 379 126 s cmd;
#X text 378 58 forward messages;
#X obj 60 117 r osc-in;
#X obj 60 140 route go;
#X obj 416 546 % 180;
#X obj 147 49 inlet;
#X obj 138 97 s \$0-next;
#X obj 470 571 r \$0-next;
#X text 459 546 every three minutes;
#X connect 0 0 32 0;
#X connect 2 0 1 0;
#X connect 3 0 4 0;
#X connect 4 0 5 0;
#X connect 5 0 7 0;
#X connect 6 0 8 0;
#X connect 8 0 9 0;
#X connect 9 0 0 0;
#X connect 10 0 11 0;
#X connect 11 0 2 0;
#X connect 14 0 33 0;
#X connect 15 0 17 0;
#X connect 16 0 14 0;
#X connect 17 0 16 0;
#X connect 19 0 34 0;
#X connect 20 0 23 0;
#X connect 21 0 19 0;
#X connect 23 0 21 0;
#X connect 24 0 28 0;
#X connect 25 0 27 0;
#X connect 26 0 25 0;
#X connect 30 0 29 0;
#X connect 31 0 30 0;
#X connect 31 0 73 0;
#X connect 32 0 31 0;
#X connect 33 0 24 0;
#X connect 34 0 26 0;
#X connect 35 0 0 0;
#X connect 36 0 14 0;
#X connect 37 0 19 0;
#X connect 38 0 40 0;
#X connect 40 0 62 0;
#X connect 41 0 44 0;
#X connect 42 0 43 0;
#X connect 43 0 41 0;
#X connect 44 0 71 0;
#X connect 44 0 92 0;
#X connect 45 0 63 0;
#X connect 46 0 72 0;
#X connect 49 0 66 0;
#X connect 50 0 51 0;
#X connect 50 1 64 0;
#X connect 51 0 52 0;
#X connect 53 0 54 0;
#X connect 60 0 69 0;
#X connect 60 1 46 0;
#X connect 62 0 39 0;
#X connect 63 0 80 0;
#X connect 64 0 52 0;
#X connect 67 0 50 0;
#X connect 68 0 41 0;
#X connect 69 0 78 0;
#X connect 70 0 75 0;
#X connect 72 0 76 0;
#X connect 75 0 85 0;
#X connect 78 0 70 0;
#X connect 80 0 82 0;
#X connect 82 0 81 0;
#X connect 83 0 59 0;
#X connect 85 0 77 0;
#X connect 86 0 87 0;
#X connect 87 0 88 0;
#X connect 90 0 91 0;
#X connect 91 0 50 0;
#X connect 92 0 45 0;
#X connect 93 0 94 0;
#X connect 95 0 63 0;
