#N canvas 69 81 1382 821 12;
#X msg 610 204 0.964286;
#X obj 417 316 s bs-casula;
#X msg 417 285 menusave;
#X obj 419 53 netreceive -u -b 5550;
#X obj 419 82 oscparse;
#X obj 419 111 list trim;
#X obj 610 74 r osc-in;
#X obj 419 140 s osc-in;
#X obj 610 110 route density;
#X msg 610 147 set \$1 \, bang;
#X obj 417 228 r osc-in;
#X obj 417 255 route save;
#X text 609 45 DENSITY;
#X text 424 203 SAVE;
#X msg 810 204 0.978571;
#X obj 810 74 r osc-in;
#X msg 810 147 set \$1 \, bang;
#X obj 810 110 route gain;
#X text 809 45 GAIN;
#X msg 1005 205 0.935714;
#X obj 1005 75 r osc-in;
#X msg 1005 148 set \$1 \, bang;
#X text 1004 46 FILTER;
#X obj 1005 111 route filter;
#X msg 810 263 all ramble gain \$1;
#X msg 1005 292 all hp \$1;
#X obj 1005 263 bop.p.scale 0 1 20 15000;
#X obj 1005 321 s cmd;
#X obj 810 292 s cmd;
#X obj 610 315 s cmd;
#X msg 610 286 all ramble follow \$1;
#X obj 610 257 bop.p.scale 0 1 30000 10;
#X obj 610 230 clip 0 1;
#X obj 810 233 clip 0 1;
#X obj 1005 234 clip 0 1;
#X obj 621 178 loadbang;
#X obj 820 176 loadbang;
#X obj 1015 177 loadbang;
#X obj 31 538 loadbang;
#X obj 31 677 s cmd;
#X obj 31 567 delay 500;
#X obj 319 576 metro 1000;
#X obj 319 527 loadbang;
#X msg 319 551 1;
#X obj 319 601 bop.p.counter;
#X obj 319 631 % 240;
#X text 362 631 every four minutes;
#X obj 319 655 sel 0;
#X obj 319 680 bop.p.counter;
#X msg 319 708 all ramble folder \$1;
#X obj 319 737 s cmd;
#X text 316 504 INCREMENT FOLDER;
#X msg 31 606 all ramble mode 1 \, all ramble folder 0 \, all 60 127, f 21;
#X text 28 515 BEGIN;
#X obj 39 40 inlet;
#X obj 41 70 sel 0 1;
#X msg 41 129 all ramble stop;
#X msg 64 100 all 64 127;
#X obj 42 154 s cmd;
#X msg 869 721 all ramble gain 1 0 20000;
#X obj 870 753 s cmd;
#X text 396 20 OSC IN ==============================================================================================================================, f 134;
#X text 522 606 add follow cancel / trickle out;
#X text 866 698 fades work;
#X text 160 99 < START;
#X text 162 132 < HARD STOP;
#X msg 40 196 all ramble follow cancel, f 15;
#X text 157 202 < TRICKLE STOP;
#X obj 39 247 s cmd;
#X connect 0 0 32 0;
#X connect 2 0 1 0;
#X connect 3 0 4 0;
#X connect 4 0 5 0;
#X connect 5 0 7 0;
#X connect 6 0 8 0;
#X connect 8 0 9 0;
#X connect 9 0 0 0;
#X connect 10 0 11 0;
#X connect 11 0 2 0;
#X connect 14 0 33 0;
#X connect 15 0 17 0;
#X connect 16 0 14 0;
#X connect 17 0 16 0;
#X connect 19 0 34 0;
#X connect 20 0 23 0;
#X connect 21 0 19 0;
#X connect 23 0 21 0;
#X connect 24 0 28 0;
#X connect 25 0 27 0;
#X connect 26 0 25 0;
#X connect 30 0 29 0;
#X connect 31 0 30 0;
#X connect 32 0 31 0;
#X connect 33 0 24 0;
#X connect 34 0 26 0;
#X connect 35 0 0 0;
#X connect 36 0 14 0;
#X connect 37 0 19 0;
#X connect 38 0 40 0;
#X connect 40 0 52 0;
#X connect 41 0 44 0;
#X connect 42 0 43 0;
#X connect 43 0 41 0;
#X connect 44 0 45 0;
#X connect 45 0 47 0;
#X connect 47 0 48 0;
#X connect 48 0 49 0;
#X connect 49 0 50 0;
#X connect 52 0 39 0;
#X connect 54 0 55 0;
#X connect 55 0 56 0;
#X connect 55 1 57 0;
#X connect 56 0 58 0;
#X connect 59 0 60 0;
#X connect 66 0 68 0;
