#N canvas 580 118 830 756 12;
#X msg 630 184 0.364286;
#X obj 295 38 netreceive -u -b 5550;
#X obj 295 67 oscparse;
#X obj 295 96 list trim;
#X obj 630 74 r osc-in;
#X obj 295 125 s osc-in;
#X obj 630 110 route density;
#X msg 630 147 set \$1 \, bang;
#X text 629 45 DENSITY;
#X msg 1080 184 0.207143;
#X obj 1080 74 r osc-in;
#X msg 1080 147 set \$1 \, bang;
#X obj 1080 110 route gain;
#X text 1079 45 GAIN;
#X msg 855 185 0.304524;
#X obj 855 75 r osc-in;
#X msg 855 148 set \$1 \, bang;
#X text 854 46 FILTER;
#X obj 855 111 route filter;
#X msg 855 272 all hp \$1;
#X obj 855 243 bop.p.scale 0 1 20 15000;
#X obj 855 301 s cmd;
#X obj 1080 272 s cmd;
#X obj 630 325 s cmd;
#X obj 630 237 bop.p.scale 0 1 30000 10;
#X obj 630 210 clip 0 1;
#X obj 1080 213 clip 0 1;
#X obj 855 214 clip 0 1;
#X obj 31 538 loadbang;
#X obj 31 677 s cmd;
#X obj 31 567 delay 500;
#X obj 416 491 metro 1000;
#X obj 416 442 loadbang;
#X msg 416 466 1;
#X obj 416 516 bop.p.counter;
#X obj 416 570 sel 0;
#X obj 897 547 bop.p.counter;
#X text 413 419 INCREMENT FOLDER;
#X text 28 515 BEGIN;
#X obj 40 33 inlet;
#X obj 42 168 sel 0 1;
#X obj 43 272 s cmd;
#X obj 31 466 s cmd;
#X text 27 411 fades work;
#X text 163 250 < HARD STOP;
#X text 198 306 < TRICKLE STOP;
#X obj 40 361 s cmd;
#X obj 636 448 t b b b, f 36;
#X text 736 401 make a lightweight bop.seq!;
#X obj 416 596 bng 19 250 50 0 empty empty empty 0 -10 0 12 #fcfcfc #000000 #000000;
#X text 317 205 < STOP/START;
#X obj 40 60 s \$0-go;
#X obj 41 90 r \$0-go;
#X obj 356 442 r \$0-go;
#X obj 637 477 bng 19 250 50 0 empty empty empty 0 -10 0 12 #fcfcfc #000000 #000000;
#X obj 637 543 bng 19 250 50 0 empty empty empty 0 -10 0 12 #fcfcfc #000000 #000000;
#X floatatom 355 546 5 0 0 0 - - - 0;
#X obj 649 267 s \$0-follow;
#X obj 655 573 r \$0-follow;
#X obj 637 605 f;
#X obj 897 620 s cmd;
#X obj 637 659 s cmd;
#X obj 637 505 delay 15000;
#X text 814 474 15 second trickle stop \, folder change \,;
#X obj 416 625 bop.p.counter;
#X obj 416 698 s cmd;
#X text 663 543 reset follow and start;
#X obj 379 78 r osc-in;
#X obj 379 102 route cmd;
#X obj 379 126 s cmd;
#X text 378 58 forward messages;
#X obj 60 117 r osc-in;
#X obj 60 140 route go;
#X obj 147 49 inlet;
#X obj 138 97 s \$0-next;
#X obj 470 571 r \$0-next;
#X text 459 546 every three minutes;
#X obj 1351 418 text define params;
#X msg 1351 374 read params.txt;
#X obj 1543 223 r osc-in;
#X obj 1498 289 pack s f f f, f 20;
#X obj 1498 328 text set params;
#X msg 1498 188 symbol params;
#X obj 1305 322 loadbang;
#X obj 1305 346 t b b, f 7;
#X obj 1305 454 text get params;
#X msg 1305 384 0;
#X obj 1305 483 list trim;
#X obj 1305 507 route params;
#X obj 1305 531 unpack f f f, f 25;
#X msg 1466 374 write params.txt;
#X obj 1466 85 r osc-in;
#X obj 1466 112 route save;
#X text 1473 60 SAVE;
#X msg 1305 573 density \$1;
#X msg 1477 573 gain \$1;
#X msg 1391 573 filter \$1;
#X obj 1305 625 s osc-in;
#X obj 1466 145 t b b;
#X obj 1543 254 route density filter gain;
#X text 1310 25 PARAMETER SAVING AND LOADING;
#X text 586 20 OSC IN ==================================================================================, f 92;
#X msg 65 208 all bedrock stop \, all bedrock start;
#X msg 31 606 all bedrock folder 0 \, all bedrock start, f 21;
#X msg 416 653 all bedrock folder \$1;
#X msg 30 434 all bedrock gain 1 0 20000;
#X msg 41 310 all bedrock follow 0;
#X msg 42 247 all bedrock stop;
#X msg 630 296 all bedrock follow \$1;
#X msg 1080 243 all bedrock gain \$1;
#X msg 897 575 all bedrock follow 0 \, all bedrock folder \$1, f 27;
#X msg 637 629 all bedrock follow \$1 \, all 64 127;
#X obj 416 546 % 50;
#X connect 0 0 25 0;
#X connect 1 0 2 0;
#X connect 2 0 3 0;
#X connect 3 0 5 0;
#X connect 4 0 6 0;
#X connect 6 0 7 0;
#X connect 7 0 0 0;
#X connect 9 0 26 0;
#X connect 10 0 12 0;
#X connect 11 0 9 0;
#X connect 12 0 11 0;
#X connect 14 0 27 0;
#X connect 15 0 18 0;
#X connect 16 0 14 0;
#X connect 18 0 16 0;
#X connect 19 0 21 0;
#X connect 20 0 19 0;
#X connect 24 0 108 0;
#X connect 24 0 57 0;
#X connect 25 0 24 0;
#X connect 26 0 109 0;
#X connect 27 0 20 0;
#X connect 28 0 30 0;
#X connect 30 0 103 0;
#X connect 31 0 34 0;
#X connect 32 0 33 0;
#X connect 33 0 31 0;
#X connect 34 0 56 0;
#X connect 34 0 112 0;
#X connect 35 0 49 0;
#X connect 36 0 110 0;
#X connect 39 0 51 0;
#X connect 40 0 107 0;
#X connect 40 1 102 0;
#X connect 47 0 54 0;
#X connect 47 1 36 0;
#X connect 49 0 64 0;
#X connect 52 0 40 0;
#X connect 53 0 31 0;
#X connect 54 0 62 0;
#X connect 55 0 59 0;
#X connect 59 0 111 0;
#X connect 62 0 55 0;
#X connect 64 0 104 0;
#X connect 67 0 68 0;
#X connect 68 0 69 0;
#X connect 71 0 72 0;
#X connect 72 0 40 0;
#X connect 73 0 74 0;
#X connect 75 0 49 0;
#X connect 78 0 77 0;
#X connect 79 0 99 0;
#X connect 80 0 81 0;
#X connect 82 0 80 0;
#X connect 83 0 84 0;
#X connect 84 0 86 0;
#X connect 84 1 78 0;
#X connect 85 0 87 0;
#X connect 86 0 85 0;
#X connect 87 0 88 0;
#X connect 88 0 89 0;
#X connect 89 0 94 0;
#X connect 89 1 96 0;
#X connect 89 2 95 0;
#X connect 90 0 77 0;
#X connect 91 0 92 0;
#X connect 92 0 98 0;
#X connect 94 0 97 0;
#X connect 95 0 97 0;
#X connect 96 0 97 0;
#X connect 98 0 90 0;
#X connect 98 1 82 0;
#X connect 99 0 80 1;
#X connect 99 1 80 2;
#X connect 99 2 80 3;
#X connect 102 0 41 0;
#X connect 103 0 29 0;
#X connect 104 0 65 0;
#X connect 105 0 42 0;
#X connect 106 0 46 0;
#X connect 107 0 41 0;
#X connect 108 0 23 0;
#X connect 109 0 22 0;
#X connect 110 0 60 0;
#X connect 111 0 61 0;
#X connect 112 0 35 0;
