#N canvas 63 100 1091 549 12;
#X msg 67 333 2;
#X msg 52 304 1;
#X msg 34 273 0;
#X text 87 301 random;
#X text 100 329 cycle;
#X floatatom 641 118 13 0 0 0 - - - 0;
#X text 636 92 hipass (Hz);
#X obj 33 436 s cmd;
#X obj 620 210 s cmd;
#X obj 411 180 s cmd, f 6;
#X floatatom 411 115 5 0 0 0 - - - 0;
#X text 454 113 FOLDER;
#X floatatom 839 112 5 0 1 0 - - - 0;
#X text 842 87 gain;
#X obj 839 177 s cmd;
#X obj 274 374 s cmd;
#X obj 487 276 tgl 19 0 empty empty empty 0 -10 0 12 #fcfcfc #000000 #000000 0 1;
#X obj 268 151 s cmd;
#X obj 487 379 s cmd;
#X obj 34 194 s cmd;
#X msg 25 122 0 64 127;
#X floatatom 274 307 13 0 0 0 - - - 0;
#X text 520 274 click;
#X text 102 121 midi to channel 0;
#X text 147 150 midi to all;
#X msg 487 309 0 ramble \$1;
#X text 70 273 MIDI;
#X text 26 244 sample index;
#X text 262 278 follow time (off < 50);
#X msg 515 341 0 ramble dump;
#X floatatom 31 362 5 0 0 0 - - - 0;
#X msg 45 152 all 65 127;
#X msg 32 397 all ramble mode \$1;
#X msg 274 338 all ramble follow \$1;
#X msg 411 147 all ramble folder \$1;
#X msg 268 117 all ramble stop;
#X msg 839 141 all ramble gain \$1;
#X msg 620 164 0 hp \$1;
#X obj 647 421 s cmd;
#X msg 701 162 2 hp \$1;
#X msg 698 188 all hp 10;
#X msg 775 117 0;
#X msg 738 117 2000;
#X obj 296 13 bng 19 250 50 0 empty empty empty 0 -10 0 12 #fcfcfc #000000 #000000;
#X obj 649 349 list prepend all;
#X obj 648 383 list trim;
#X msg 436 34 all ramble dump;
#X msg 294 40 all bang;
#X obj 295 71 s cmd;
#X text 326 13 reset;
#X obj 436 68 s cmd;
#X msg 650 275 ramble follow 50 \, ramble mode 0 \, ramble folder 5 \, ramble gain 1 \, 65 127, f 27;
#X connect 0 0 30 0;
#X connect 1 0 30 0;
#X connect 2 0 30 0;
#X connect 5 0 37 0;
#X connect 5 0 39 0;
#X connect 10 0 34 0;
#X connect 12 0 36 0;
#X connect 16 0 25 0;
#X connect 20 0 19 0;
#X connect 21 0 33 0;
#X connect 25 0 18 0;
#X connect 29 0 18 0;
#X connect 30 0 32 0;
#X connect 31 0 19 0;
#X connect 32 0 7 0;
#X connect 33 0 15 0;
#X connect 34 0 9 0;
#X connect 35 0 17 0;
#X connect 36 0 14 0;
#X connect 37 0 8 0;
#X connect 39 0 8 0;
#X connect 40 0 8 0;
#X connect 41 0 5 0;
#X connect 42 0 5 0;
#X connect 43 0 47 0;
#X connect 44 0 45 0;
#X connect 45 0 38 0;
#X connect 46 0 50 0;
#X connect 47 0 48 0;
#X connect 51 0 44 0;
