#N canvas 708 170 396 423 12;
#X obj 21 338 dac~, f 26;
#X msg 22 109 \; pd dsp 1;
#X obj 22 80 loadbang;
#X obj 25 249 noise~;
#X obj 25 273 *~ 0.1;
#X obj 185 256 noise~;
#X obj 185 280 *~ 0.1;
#X connect 2 0 1 0;
#X connect 3 0 4 0;
#X connect 4 0 0 0;
#X connect 5 0 6 0;
#X connect 6 0 0 1;
