#N canvas 735 151 735 664 12;
#X declare -path ../bop/bop.p;
#X obj 287 264 s osc;
#X obj 254 10 r osc;
#X obj 157 284 s osc;
#X obj 17 265 s osc;
#X obj 118 119 bng 19 250 50 0 \$0-save empty save 25 9 0 12 #fcfcfc #000000 #000000;
#X obj 406 263 s osc;
#X obj 254 121 netsend -u -b;
#X msg 300 64 connect 255.255.255.255 5550, f 24;
#X obj 299 39 loadbang;
#X obj 18 235 oscformat density;
#X obj 157 255 oscformat filter;
#X obj 289 235 oscformat gain;
#X obj 407 230 oscformat save;
#X obj 520 59 bop.p.param \$0 density;
#X obj 27 20 bop.p.param.gui \$0 density;
#X obj 27 50 bop.p.param.gui \$0 filter;
#X obj 27 80 bop.p.param.gui \$0 gain;
#X obj 520 89 bop.p.param \$0 filter;
#X obj 532 129 bop.p.param \$0 gain;
#X obj 17 205 r \$0-get-density;
#X obj 157 204 r \$0-get-filter;
#X obj 289 199 r \$0-get-gain;
#X obj 407 201 r \$0-save;
#X obj 157 229 pow 4;
#X listbox 25 151 22 0 0 0 - - \$0-command 0;
#X obj 515 607 oscformat;
#X obj 518 635 s osc;
#X obj 523 400 list split;
#X obj 570 328 list length;
#X obj 597 364 - 1;
#X obj 642 370 list;
#X obj 545 276 t b l l;
#X obj 518 438 list prepend;
#X obj 515 508 list split 1;
#X obj 555 568 list trim;
#X obj 555 544 list prepend set cmd;
#X obj 559 205 r \$0-command;
#X obj 29 118 tgl 19 0 \$0-go empty go 22 7 0 12 #fcfcfc #000000 #000000 0 1;
#X obj 24 319 r \$0-go;
#X obj 24 343 tgl 19 0 empty empty empty 0 -10 0 12 #fcfcfc #000000 #000000 0 1;
#X obj 25 367 oscformat go;
#X obj 25 398 s osc;
#X obj 503 29 declare -path ../bop/bop.p;
#X connect 1 0 6 0;
#X connect 7 0 6 0;
#X connect 8 0 7 0;
#X connect 9 0 3 0;
#X connect 10 0 2 0;
#X connect 11 0 0 0;
#X connect 12 0 5 0;
#X connect 19 0 9 0;
#X connect 20 0 23 0;
#X connect 21 0 11 0;
#X connect 22 0 12 0;
#X connect 23 0 10 0;
#X connect 25 0 26 0;
#X connect 27 0 32 0;
#X connect 27 1 32 1;
#X connect 28 0 29 0;
#X connect 29 0 27 1;
#X connect 31 1 27 0;
#X connect 31 2 28 0;
#X connect 32 0 33 0;
#X connect 33 0 25 0;
#X connect 33 1 35 0;
#X connect 34 0 25 0;
#X connect 35 0 34 0;
#X connect 36 0 31 0;
#X connect 38 0 39 0;
#X connect 39 0 40 0;
#X connect 40 0 41 0;
#X coords 0 -1 1 1 180 165 2 10 10;
